<?xml version="1.0" encoding="UTF-8"?>
<svg width="85px" height="85px" viewBox="0 0 85 85" version="1.1" xmlns="http://www.w3.org/2000/svg" xmlns:xlink="http://www.w3.org/1999/xlink">
    <!-- Generator: Sketch 3.6.1 (26313) - http://www.bohemiancoding.com/sketch -->
    <title>financial_accounting</title>
    <desc>Created with Sketch.</desc>
    <defs></defs>
    <g id="Page-1" stroke="none" stroke-width="1" fill="none" fill-rule="evenodd">
        <g id="financial_accounting" transform="translate(1.000000, 1.000000)">
            <rect id="Rectangle-path" stroke="#F5A623" fill="#55493B" x="0" y="0" width="83" height="83" rx="11"></rect>
            <path d="M30.65725,74.6 L30.65725,69.938 L36.97525,69.938 L36.97525,67.742 L30.65725,67.742 L30.65725,64.304 L37.33525,64.304 L37.33525,62.018 L28.28125,62.018 L28.28125,74.6 L30.65725,74.6 Z M41.49175,74.6 L41.49175,62 L39.13375,62 L39.13375,74.6 L41.49175,74.6 Z M51.96625,69.812 L45.79225,62 L43.86625,62 L43.86625,74.6 L46.24225,74.6 L46.24225,66.104 L52.86625,74.618 L52.86625,74.6 L54.34225,74.6 L54.34225,61.982 L51.96625,61.982 L51.96625,69.812 Z" id="FIN" fill="#F6A623"></path>
            <g id="Group" transform="translate(21.000000, 10.000000)" fill="#F5A623">
                <path d="M0,20.2758621 L20.2758621,20.2758621 L20.2758621,0 L0,0 L0,20.2758621 L0,20.2758621 Z M5.79310345,8.68965517 L8.68965517,8.68965517 L8.68965517,5.79310345 C8.68965517,4.99365517 9.33848276,4.34482759 10.137931,4.34482759 C10.9373793,4.34482759 11.5862069,4.99365517 11.5862069,5.79310345 L11.5862069,8.68965517 L14.4827586,8.68965517 C15.2822069,8.68965517 15.9310345,9.33848276 15.9310345,10.137931 C15.9310345,10.9373793 15.2822069,11.5862069 14.4827586,11.5862069 L11.5862069,11.5862069 L11.5862069,14.4827586 C11.5862069,15.2822069 10.9373793,15.9310345 10.137931,15.9310345 C9.33848276,15.9310345 8.68965517,15.2822069 8.68965517,14.4827586 L8.68965517,11.5862069 L5.79310345,11.5862069 C4.99365517,11.5862069 4.34482759,10.9373793 4.34482759,10.137931 C4.34482759,9.33848276 4.99365517,8.68965517 5.79310345,8.68965517 L5.79310345,8.68965517 Z" id="Shape"></path>
                <path d="M21.7241379,0 L21.7241379,20.2758621 L42,20.2758621 L42,0 L21.7241379,0 L21.7241379,0 Z M36.2068966,11.5862069 L27.5172414,11.5862069 C26.7177931,11.5862069 26.0689655,10.9373793 26.0689655,10.137931 C26.0689655,9.33848276 26.7177931,8.68965517 27.5172414,8.68965517 L36.2068966,8.68965517 C37.0063448,8.68965517 37.6551724,9.33848276 37.6551724,10.137931 C37.6551724,10.9373793 37.0063448,11.5862069 36.2068966,11.5862069 L36.2068966,11.5862069 Z" id="Shape"></path>
                <path d="M21.7241379,42 L42,42 L42,21.7241379 L21.7241379,21.7241379 L21.7241379,42 L21.7241379,42 Z M27.5172414,28.2413793 L36.2068966,28.2413793 C37.0063448,28.2413793 37.6551724,28.8902069 37.6551724,29.6896552 C37.6551724,30.4891034 37.0063448,31.137931 36.2068966,31.137931 L27.5172414,31.137931 C26.7177931,31.137931 26.0689655,30.4891034 26.0689655,29.6896552 C26.0689655,28.8902069 26.7177931,28.2413793 27.5172414,28.2413793 L27.5172414,28.2413793 Z M27.5172414,32.5862069 L36.2068966,32.5862069 C37.0063448,32.5862069 37.6551724,33.2350345 37.6551724,34.0344828 C37.6551724,34.833931 37.0063448,35.4827586 36.2068966,35.4827586 L27.5172414,35.4827586 C26.7177931,35.4827586 26.0689655,34.833931 26.0689655,34.0344828 C26.0689655,33.2350345 26.7177931,32.5862069 27.5172414,32.5862069 L27.5172414,32.5862069 Z" id="Shape"></path>
                <path d="M0,42 L20.2758621,42 L20.2758621,21.7241379 L0,21.7241379 L0,42 L0,42 Z M5.49331034,29.2653103 C4.92775862,28.6997586 4.92775862,27.783 5.49331034,27.2174483 C6.05813793,26.6518966 6.97634483,26.6518966 7.54117241,27.2174483 L10.137931,29.8142069 L12.7346897,27.2174483 C13.2995172,26.6518966 14.2177241,26.6518966 14.7825517,27.2174483 C15.3481034,27.783 15.3481034,28.6997586 14.7825517,29.2653103 L12.1857931,31.862069 L14.7825517,34.4588276 C15.3481034,35.0243793 15.3481034,35.9411379 14.7825517,36.5066897 C14.5001379,36.7898276 14.1293793,36.9310345 13.7586207,36.9310345 C13.3878621,36.9310345 13.0171034,36.7898276 12.7346897,36.5066897 L10.137931,33.909931 L7.54117241,36.5066897 C7.25875862,36.7898276 6.888,36.9310345 6.51724138,36.9310345 C6.14648276,36.9310345 5.77572414,36.7898276 5.49331034,36.5066897 C4.92775862,35.9411379 4.92775862,35.0243793 5.49331034,34.4588276 L8.09006897,31.862069 L5.49331034,29.2653103 L5.49331034,29.2653103 Z" id="Shape"></path>
            </g>
        </g>
    </g>
</svg>