<?xml version="1.0" encoding="UTF-8"?>
<svg width="85px" height="85px" viewBox="0 0 85 85" version="1.1" xmlns="http://www.w3.org/2000/svg" xmlns:xlink="http://www.w3.org/1999/xlink">
    <!-- Generator: Sketch 3.6.1 (26313) - http://www.bohemiancoding.com/sketch -->
    <title>food_beverage</title>
    <desc>Created with Sketch.</desc>
    <defs></defs>
    <g id="Page-1" stroke="none" stroke-width="1" fill="none" fill-rule="evenodd">
        <g id="food_beverage" transform="translate(1.000000, 1.000000)">
            <rect id="Rectangle-path" stroke="#F5A623" fill="#55493B" x="0" y="0" width="83" height="83" rx="11"></rect>
            <path d="M33.3025,74.6 L33.3025,69.938 L39.6205,69.938 L39.6205,67.742 L33.3025,67.742 L33.3025,64.304 L39.9805,64.304 L39.9805,62.018 L30.9265,62.018 L30.9265,74.6 L33.3025,74.6 Z M43.849,69.146 L47.485,69.146 C48.457,69.146 49.843,69.74 49.843,70.874 C49.843,72.062 48.457,72.386 47.485,72.386 L43.849,72.386 L43.849,69.146 Z M43.849,64.16 L47.485,64.16 C48.997,64.16 49.465,65.132 49.465,65.708 C49.465,66.428 48.979,67.058 47.485,67.058 L43.849,67.058 L43.849,64.16 Z M47.485,62 L41.509,62 L41.509,74.6 L47.485,74.6 C50.095,74.6 52.201,73.7 52.201,70.892 C52.201,70.1 51.661,68.534 50.185,68.084 C51.355,67.562 51.823,66.626 51.823,65.654 C51.823,63.116 49.969,62 47.485,62 L47.485,62 Z" id="FB" fill="#F6A623"></path>
            <g id="Group" transform="translate(13.000000, 9.000000)" fill="#F5A623">
                <path d="M30.9794587,36.3472146 C38.7796073,36.3472146 45.1260231,30.0156347 45.1260231,22.2312511 C45.1260231,14.4468676 38.7798086,8.11227397 30.9794587,8.11227397 C23.1797129,8.11227397 16.833901,14.445863 16.833901,22.2312511 C16.833901,30.0156347 23.1787063,36.3472146 30.9794587,36.3472146 L30.9794587,36.3472146 Z" id="Shape"></path>
                <path d="M30.9794587,40.1366393 C40.8896436,40.1366393 48.9207063,32.1195982 48.9207063,22.2314521 C48.9207063,12.340895 40.8894422,4.32546119 30.9794587,4.32546119 C21.0702805,4.32546119 13.0380099,12.340895 13.0380099,22.2314521 C13.0380099,32.1193973 21.0702805,40.1366393 30.9794587,40.1366393 L30.9794587,40.1366393 Z M30.9794587,7.06873059 C39.3559868,7.06873059 46.1728878,13.8720548 46.1728878,22.2314521 C46.1728878,30.5912511 39.3561881,37.3931689 30.9794587,37.3931689 C22.6027294,37.3931689 15.7870363,30.5914521 15.7870363,22.2314521 C15.7870363,13.8720548 22.6027294,7.06873059 30.9794587,7.06873059 L30.9794587,7.06873059 Z" id="Shape"></path>
                <path d="M57.8910858,41.802411 L56.8442211,1.61453881 C56.8442211,0.749205479 56.1410099,0.0474155251 55.2739241,0.0474155251 C55.0420033,0.0474155251 54.8241749,0.100456621 54.6268812,0.191671233 L54.6268812,0.176803653 C54.6268812,0.176803653 54.5860132,0.202922374 54.5276304,0.242703196 C54.3774455,0.325479452 54.2425611,0.427342466 54.1259967,0.551908676 C52.9768614,1.49318721 49.3130363,5.32962557 49.0062244,10.5155982 C48.5409736,18.4259543 52.3910198,21.629516 53.7026205,24.563653 L52.6559571,41.8016073 C52.6559571,42.6667397 54.406033,43.3687306 55.2729175,43.3687306 C56.1410099,43.3695342 57.8910858,42.6677443 57.8910858,41.802411 L57.8910858,41.802411 Z" id="Shape" transform="translate(53.429270, 21.708073) scale(-1, 1) translate(-53.429270, -21.708073) "></path>
                <path d="M2.74077228,17.3199269 L5.45074257,18.6708676 C5.75956766,18.8253699 6.1,18.9380822 6.45573267,19.021863 L5.40886799,42.5301187 C5.40886799,43.2564201 7.15954785,43.8440913 8.0260297,43.8440913 C8.89291419,43.8440913 10.6431914,43.2564201 10.6431914,42.5301187 L9.59632673,18.901516 C9.96494389,18.78579 10.3200726,18.6445479 10.6309109,18.4546849 L12.6386766,17.2345388 C14.0873762,16.3525297 15.1791353,14.4127123 15.1791353,12.7190137 L15.1791353,2.18593607 C15.1791353,1.32060274 14.4757228,0.618812785 13.6088383,0.618812785 C12.7423564,0.618812785 12.0385413,1.32060274 12.0385413,2.18593607 L12.0385413,11.6740639 L11.1664224,11.6740639 L11.1664224,2.18593607 C11.1664224,1.32060274 10.4630099,0.618812785 9.59612541,0.618812785 C8.72964356,0.618812785 8.02582838,1.32060274 8.02582838,2.18593607 L8.02582838,11.6740639 L7.15068977,11.6740639 L7.15068977,2.18593607 C7.15068977,1.32060274 6.44727723,0.618812785 5.58039274,0.618812785 C4.71391089,0.618812785 4.01009571,1.32060274 4.01009571,2.18593607 L4.01009571,11.6740639 L3.14059406,11.6740639 L3.14059406,2.52447489 C3.14059406,1.65934247 2.43718152,0.957351598 1.57029703,0.957351598 C0.703815182,0.957351598 0,1.65934247 0,2.52447489 L0,12.8940091 C0,14.6369315 1.17872937,16.5405845 2.74077228,17.3199269 L2.74077228,17.3199269 Z" id="Shape"></path>
            </g>
        </g>
    </g>
</svg>