<?xml version="1.0" encoding="UTF-8"?>
<svg width="85px" height="85px" viewBox="0 0 85 85" version="1.1" xmlns="http://www.w3.org/2000/svg" xmlns:xlink="http://www.w3.org/1999/xlink">
    <!-- Generator: Sketch 3.6.1 (26313) - http://www.bohemiancoding.com/sketch -->
    <title>front_office</title>
    <desc>Created with Sketch.</desc>
    <defs></defs>
    <g id="Page-1" stroke="none" stroke-width="1" fill="none" fill-rule="evenodd">
        <g id="front_office" transform="translate(1.000000, 1.000000)">
            <rect id="Rectangle-path" stroke="#F5A623" fill="#55493B" x="0" y="0" width="83" height="83" rx="11"></rect>
            <path d="M32.1955,74.6 L32.1955,69.938 L38.5135,69.938 L38.5135,67.742 L32.1955,67.742 L32.1955,64.304 L38.8735,64.304 L38.8735,62.018 L29.8195,62.018 L29.8195,74.6 L32.1955,74.6 Z M46.774,61.748 C42.418,61.748 40.294,65.078 40.294,68.39 C40.294,71.702 42.346,74.888 46.774,74.888 C51.202,74.888 53.2,71.63 53.236,68.372 C53.272,65.078 51.112,61.748 46.774,61.748 L46.774,61.748 Z M46.774,63.908 C49.744,63.908 50.932,66.284 50.896,68.408 C50.86,70.478 49.744,72.71 46.774,72.71 C43.804,72.71 42.688,70.496 42.634,68.426 C42.58,66.302 43.804,63.908 46.774,63.908 L46.774,63.908 Z" id="FO" fill="#F6A623"></path>
            <g id="Group" transform="translate(20.000000, 8.000000)" fill="#F5A623">
                <path d="M43.232881,20.5172698 L38.1035635,20.5172698 L38.1035635,19.0517381 C38.1035635,18.6472698 37.7753095,18.3190159 37.3708413,18.3190159 L37.3708413,16.8534841 C37.7753095,16.8534841 38.1035635,16.5252302 38.1035635,16.1207619 C38.1035635,13.2922778 35.8027302,10.9914444 32.974246,10.9914444 C30.1457619,10.9914444 27.8449286,13.2922778 27.8449286,16.1207619 C27.8449286,16.5252302 28.1731825,16.8534841 28.5776508,16.8534841 L28.5776508,18.3190159 C28.1731825,18.3190159 27.8449286,18.6472698 27.8449286,19.0517381 L27.8449286,20.5172698 L19.0518254,20.5172698 L19.0518254,16.1206746 C19.0518254,14.003 18.0193968,11.9989048 16.2900397,10.7605317 C16.0343333,10.5780714 15.6914127,10.5780714 15.4364048,10.7612302 C14.8179603,11.2045476 14.1123016,11.4830397 13.383246,11.6141667 L15.1733651,13.4042857 C15.4115238,13.6416587 15.4569206,14.0110317 15.2832778,14.2997381 L13.0850238,17.9635238 C12.9531111,18.1840476 12.714254,18.3189286 12.4570635,18.3189286 C12.199873,18.3189286 11.9610159,18.1841349 11.8291032,17.9635238 L9.63084921,14.2997381 C9.45720635,14.0110317 9.50260317,13.641746 9.7407619,13.4042857 L11.530881,11.6141667 C10.8018254,11.4830397 10.0961667,11.2045476 9.47772222,10.7612302 C9.22271429,10.5780714 8.87979365,10.5780714 8.6240873,10.7605317 C6.89473016,11.9989048 5.86230159,14.003 5.86230159,16.1206746 L5.86230159,20.5172698 L0.732722222,20.5172698 C0.328253968,20.5172698 0,20.8455238 0,21.2499921 L0,25.6465873 C0,26.0510556 0.328253968,26.3793095 0.732722222,26.3793095 L0.732722222,36.6379444 L6.59484921,36.6379444 C6.99931746,36.6379444 7.32757143,36.9661984 7.32757143,37.3706667 C7.32757143,37.7751349 6.99931746,38.1033889 6.59484921,38.1033889 L0.732722222,38.1033889 L0.732722222,39.5689206 L6.59484921,39.5689206 C6.99931746,39.5689206 7.32757143,39.8971746 7.32757143,40.3016429 C7.32757143,40.7061111 6.99931746,41.0343651 6.59484921,41.0343651 L0.732722222,41.0343651 L0.732722222,41.7670873 C0.732722222,42.9790952 1.71905556,43.9653413 2.93097619,43.9653413 L41.0345397,43.9653413 C42.2465476,43.9653413 43.2327937,42.9790079 43.2327937,41.7670873 L43.2327937,41.0343651 L37.3706667,41.0343651 C36.9661984,41.0343651 36.6379444,40.7061111 36.6379444,40.3016429 C36.6379444,39.8971746 36.9661984,39.5689206 37.3706667,39.5689206 L43.2327937,39.5689206 L43.2327937,38.1033889 L37.3706667,38.1033889 C36.9661984,38.1033889 36.6379444,37.7751349 36.6379444,37.3706667 C36.6379444,36.9661984 36.9661984,36.6379444 37.3706667,36.6379444 L43.2327937,36.6379444 L43.2327937,26.3793968 C43.6372619,26.3793968 43.9655159,26.0511429 43.9655159,25.6466746 L43.9655159,21.2500794 C43.9656905,20.8456111 43.6373492,20.5172698 43.232881,20.5172698 L43.232881,20.5172698 Z M32.974246,12.4569762 C34.7438492,12.4569762 36.2240476,13.7180476 36.5640873,15.3880397 L29.3844921,15.3880397 C29.7244444,13.7180476 31.2046429,12.4569762 32.974246,12.4569762 L32.974246,12.4569762 Z M42.5001587,24.9138651 L1.46553175,24.9138651 L1.46553175,21.9828016 L6.59484921,21.9828016 L18.3190159,21.9828016 L28.5776508,21.9828016 L37.370754,21.9828016 L42.5000714,21.9828016 L42.5000714,24.9138651 L42.5001587,24.9138651 Z M22.6399626,34.7599866 C22.6727029,34.7440935 22.7054432,34.7282005 22.7396751,34.7115761 C22.6997938,34.636374 22.6605278,34.5623492 22.620572,34.4869865 C22.7225778,34.4374701 22.8230548,34.3887029 22.9250979,34.3391687 C22.9644012,34.4133006 23.0036672,34.4873076 23.0438282,34.5630448 C23.077799,34.5465453 23.1103343,34.5307593 23.1448645,34.51401 C23.1492646,34.5214304 23.1529936,34.5271561 23.1561632,34.5331316 C23.2249999,34.6628089 23.294918,34.7919688 23.3621699,34.9223774 C23.4137974,35.0224626 23.4003918,35.1184451 23.3322636,35.207703 C23.3238175,35.2187622 23.3226988,35.2262003 23.3290567,35.2381513 C23.7105112,35.956763 24.0913877,36.6756602 24.4729913,37.3941827 C24.593642,37.6213587 24.8468387,37.7366769 25.1038017,37.6837358 C25.4216587,37.6182371 25.6181751,37.2991455 25.5231984,37.0012981 C25.512142,36.9666045 25.4980465,36.9322677 25.4809306,36.8999287 C25.1387607,36.2534867 24.7961621,35.6072588 24.4531159,34.9612449 C24.3230123,34.7162495 24.1916036,34.4718783 24.0607542,34.2272574 C24.0205,34.1520018 23.9800594,34.0768176 23.9398052,34.001562 C23.8083592,33.7557817 23.6769505,33.5099835 23.5455045,33.2642032 C23.5034231,33.185505 23.4612672,33.1068425 23.4190739,33.0282156 C23.3646683,32.9268105 23.3053591,32.8275102 23.2566961,32.7236435 C23.1338827,32.4614529 23.1608617,32.2106247 23.3332518,31.9752435 C23.3866879,31.9022889 23.4547974,31.8431047 23.5335159,31.795265 C23.5367041,31.7933208 23.539072,31.7901279 23.5418128,31.7875058 C23.5824212,31.7677956 23.6230297,31.7480854 23.6636567,31.7283751 C23.6999396,31.7180295 23.7356444,31.7049191 23.7725984,31.6977485 C24.0903622,31.6361384 24.3529186,31.7256995 24.5580304,31.9655757 C24.5882163,32.0008936 24.6127343,32.0415983 24.6344369,32.0824457 C25.0150523,32.7985602 25.3948661,33.515085 25.7744747,34.2316989 C25.7822682,34.2463969 25.7902855,34.2519086 25.8085947,34.2526934 C25.9196806,34.2575452 26.0034518,34.3055811 26.0545759,34.4016885 C26.1226109,34.529582 26.1903662,34.6576182 26.2582333,34.7856009 C26.2614775,34.791737 26.2647404,34.797873 26.2688422,34.8056144 C26.2350765,34.8220069 26.2031006,34.8375253 26.1692229,34.8539713 C26.209272,34.9294767 26.2484634,35.0033945 26.2882515,35.0784004 C26.1858355,35.128113 26.0853399,35.176898 25.9829611,35.2265928 C25.9434714,35.1521398 25.9042613,35.0781863 25.8643241,35.002895 C25.8304092,35.0193589 25.7983401,35.0349309 25.7630641,35.0520368 C25.7588876,35.0441349 25.7554197,35.0376064 25.7519517,35.031078 C25.6843829,34.9036661 25.6167954,34.776272 25.5492452,34.6488601 C25.4940752,34.5448151 25.5097368,34.4285515 25.5905621,34.3417373 C25.5941047,34.3379201 25.5977031,34.3341564 25.6019914,34.3296258 C25.5980387,34.3221876 25.5941233,34.314803 25.5902079,34.3074183 C25.2126688,33.5955491 24.8351484,32.883662 24.4576093,32.1717928 C24.3412283,31.9523582 24.0763413,31.8347212 23.8259226,31.8912833 C23.506052,31.9635244 23.3170121,32.2761054 23.4118957,32.5771457 C23.4214977,32.6076118 23.4342508,32.6376142 23.4492785,32.6660112 C23.8015352,33.3312358 24.1542953,33.9962286 24.5070554,34.6612214 C24.5506843,34.7434692 24.5949285,34.8254316 24.638893,34.9075189 C24.7497178,35.1144496 24.8605799,35.3213624 24.9713302,35.5283287 C25.0320564,35.6417918 25.0925589,35.755362 25.1532478,35.8688608 C25.2819157,36.1095218 25.4107142,36.3500936 25.5392889,36.5908081 C25.58894,36.6837583 25.6411083,36.7756204 25.6867508,36.8703544 C25.7558299,37.0137664 25.7692914,37.1644916 25.7340527,37.318392 C25.6930527,37.4973894 25.5963234,37.6443866 25.4412917,37.7516959 C25.2370563,37.8930566 25.0107454,37.9326197 24.7673372,37.8655693 C24.5925233,37.8174086 24.4545889,37.718465 24.3511287,37.5756773 C24.3347959,37.553131 24.3205326,37.5289971 24.3075558,37.5045065 C23.9237334,36.7813284 23.5401161,36.0580255 23.1570209,35.3344906 C23.1482765,35.3179911 23.1396812,35.3121048 23.1197312,35.3128897 C23.0222747,35.316689 22.9427546,35.2813176 22.8819351,35.2080241 C22.8799961,35.2056874 22.8769943,35.2041713 22.8744959,35.2022805 C22.7963181,35.0548195 22.7181404,34.9073941 22.6399626,34.7599866 Z M20.2849522,38.2062888 L22.2203223,34.488155 L21.4837585,33.1305752 L18.2791419,39.3198008 L30.360392,39.3198008 L24.3197669,27.7617767 L23.6502499,28.9852378 L28.4291797,38.1977091 L20.2849522,38.2062888 Z M21.8314359,29.0674875 L22.478374,30.6075966 L17.829436,39.5027956 L27.3078685,39.5027956 L27.8946398,40.6398885 L15.7983246,40.6398885 L21.8314359,29.0674875 Z M13.3175074,39.2154766 L14.6866156,39.2154766 L19.3807114,30.2626987 L20.2683729,31.8747635 L20.9454038,30.564952 L19.3807114,27.6430757 L13.3175074,39.2154766 Z" id="Shape"></path>
                <path d="M12.4569762,10.2586349 C15.2854603,10.2586349 17.5862937,7.95780159 17.5862937,5.12931746 C17.5862937,2.30083333 15.285373,0 12.4569762,0 C9.62857937,0 7.32757143,2.30083333 7.32757143,5.12931746 C7.32757143,7.95780159 9.62849206,10.2586349 12.4569762,10.2586349 L12.4569762,10.2586349 Z M12.4569762,1.46553175 C14.4772222,1.46553175 16.1207619,3.10907143 16.1207619,5.12931746 C16.1207619,7.14956349 14.4772222,8.79310317 12.4569762,8.79310317 C10.4367302,8.79310317 8.79319048,7.14956349 8.79319048,5.12931746 C8.79310317,3.10907143 10.4367302,1.46553175 12.4569762,1.46553175 L12.4569762,1.46553175 Z" id="Shape"></path>
                <path d="M12.4569762,16.161881 L13.732627,14.0361746 L12.4569762,12.7604365 L11.1812381,14.0361746 L12.4569762,16.161881 Z" id="Shape"></path>
            </g>
        </g>
    </g>
</svg>