<?xml version="1.0" encoding="UTF-8"?>
<svg width="85px" height="85px" viewBox="0 0 85 85" version="1.1" xmlns="http://www.w3.org/2000/svg" xmlns:xlink="http://www.w3.org/1999/xlink">
    <!-- Generator: Sketch 3.6.1 (26313) - http://www.bohemiancoding.com/sketch -->
    <title>inventory</title>
    <desc>Created with Sketch.</desc>
    <defs></defs>
    <g id="Page-1" stroke="none" stroke-width="1" fill="none" fill-rule="evenodd">
        <g id="inventory" transform="translate(1.000000, 1.000000)">
            <rect id="Rectangle-path" stroke="#F5A623" fill="#55493B" x="0" y="0" width="83" height="83" rx="11"></rect>
            <path d="M29.32525,74.6 L29.32525,62 L26.96725,62 L26.96725,74.6 L29.32525,74.6 Z M39.79975,69.812 L33.62575,62 L31.69975,62 L31.69975,74.6 L34.07575,74.6 L34.07575,66.104 L40.69975,74.618 L40.69975,74.6 L42.17575,74.6 L42.17575,61.982 L39.79975,61.982 L39.79975,69.812 Z M56.39425,62 L53.73025,62 L49.91425,71.81 L46.11625,62 L43.45225,62 L48.69025,74.654 L51.15625,74.654 L56.39425,62 Z" id="INV" fill="#F6A623"></path>
            <g id="Group" transform="translate(19.000000, 8.000000)" fill="#F5A623">
                <path d="M29.4432813,25.7808683 C27.4665625,25.7808683 25.6251563,24.712968 24.6376563,22.9939929 C23.9185938,21.7422633 23.7192188,20.2683416 24.0760938,18.8437438 L25.2729688,14.0670036 C25.6678125,12.4911459 26.4825,11.0510463 27.62875,9.90234875 L35.446875,2.06753025 C35.2571875,0.96111032 34.2976563,0.118533808 33.1395313,0.118533808 L2.34375,0.118533808 C1.049375,0.118533808 0,1.17014947 0,2.46728826 L0,41.5959715 C0,42.8931103 1.049375,43.944726 2.34375,43.944726 L33.1396875,43.944726 C34.4340625,43.944726 35.4834375,42.8931103 35.4834375,41.5959715 L35.4834375,24.4333096 L30.793125,25.6134804 C30.3520313,25.7246548 29.8979688,25.7808683 29.4432813,25.7808683 L29.4432813,25.7808683 Z M21.5304688,29.5650249 L14.561875,35.1392456 C14.1321875,35.48279 13.6153125,35.6522135 13.1003125,35.6522135 C12.4975,35.6522135 11.8975,35.4201566 11.4425,34.9641851 L8.34890625,31.8638292 C7.43359375,30.9465623 7.43359375,29.4594875 8.34890625,28.5422206 C9.2640625,27.6251103 10.748125,27.6247972 11.6634375,28.5422206 L13.2753125,30.1575374 L18.6060938,25.893452 C19.618125,25.0843843 21.0925,25.250363 21.9,26.2639288 C22.7076563,27.2779644 22.5421875,28.7558007 21.5304688,29.5650249 L21.5304688,29.5650249 Z M21.5304688,14.3872171 L14.561875,19.9612811 C14.1321875,20.3048256 13.6153125,20.4742491 13.1003125,20.4742491 C12.4976563,20.4742491 11.8975,20.2421922 11.4425,19.7862206 L8.34890625,16.6860214 C7.43359375,15.768911 7.43359375,14.2816797 8.34890625,13.3644128 C9.2640625,12.4473025 10.748125,12.4473025 11.6634375,13.3644128 L13.2753125,14.9797295 L18.6060938,10.7156441 C19.618125,9.90626335 21.0926563,10.0725552 21.9,11.086121 C22.7076563,12.1001566 22.5421875,13.5779929 21.5304688,14.3872171 L21.5304688,14.3872171 Z" id="Shape"></path>
                <path d="M43.2495313,1.55925979 C42.8451563,1.55925979 42.4332813,1.70958007 42.0979688,2.04545196 L30.9434375,13.2238007 C30.39625,13.7721566 30.0078125,14.4587758 29.819375,15.210847 L28.6225,19.9875872 C28.5667188,20.2105623 28.5857813,20.4510747 28.7001563,20.6502491 C28.8596875,20.9280285 29.1465625,21.0832028 29.4432813,21.0832028 C29.5125,21.0832028 29.5825,21.0747473 29.65125,21.0573665 L34.44875,19.8501068 C35.1992188,19.6612669 35.8845313,19.272 36.4315625,18.7236441 L43.2273438,11.9133523 C44.3025,10.8359004 44.9065625,9.37450534 44.9065625,7.85063345 L44.9065625,3.2110605 C44.9065625,2.21753737 44.0953125,1.55925979 43.2495313,1.55925979 L43.2495313,1.55925979 Z" id="Shape"></path>
            </g>
        </g>
    </g>
</svg>