<?xml version="1.0" encoding="UTF-8"?>
<svg width="85px" height="85px" viewBox="0 0 85 85" version="1.1" xmlns="http://www.w3.org/2000/svg" xmlns:xlink="http://www.w3.org/1999/xlink">
    <!-- Generator: Sketch 44.1 (41455) - http://www.bohemiancoding.com/sketch -->
    <title>poin_of_sales</title>
    <desc>Created with Sketch.</desc>
    <defs></defs>
    <g id="Page-1" stroke="none" stroke-width="1" fill="none" fill-rule="evenodd">
        <g id="poin_of_sales" transform="translate(0.753906, 0.800781)">
            <rect id="Rectangle-path" stroke="#F5A623" fill="#55493B" x="0" y="0" width="83" height="83" rx="11"></rect>
            <path d="M27.722,68.196 L29.918,68.196 C30.2420016,68.196 30.5539985,68.1720002 30.854,68.124 C31.1540015,68.0759998 31.4179989,67.9830007 31.646,67.845 C31.8740011,67.7069993 32.0569993,67.5120013 32.195,67.26 C32.3330007,67.0079987 32.402,66.678002 32.402,66.27 C32.402,65.861998 32.3330007,65.5320013 32.195,65.28 C32.0569993,65.0279987 31.8740011,64.8330007 31.646,64.695 C31.4179989,64.5569993 31.1540015,64.4640002 30.854,64.416 C30.5539985,64.3679998 30.2420016,64.344 29.918,64.344 L27.722,64.344 L27.722,68.196 Z M24.896,62.148 L30.692,62.148 C31.496004,62.148 32.1799972,62.2649988 32.744,62.499 C33.3080028,62.7330012 33.7669982,63.0419981 34.121,63.426 C34.4750018,63.8100019 34.7329992,64.2479975 34.895,64.74 C35.0570008,65.2320025 35.138,65.7419974 35.138,66.27 C35.138,66.7860026 35.0570008,67.2929975 34.895,67.791 C34.7329992,68.2890025 34.4750018,68.7299981 34.121,69.114 C33.7669982,69.4980019 33.3080028,69.8069988 32.744,70.041 C32.1799972,70.2750012 31.496004,70.392 30.692,70.392 L27.722,70.392 L27.722,75 L24.896,75 L24.896,62.148 Z M39.17,68.628 C39.17,69.1680027 39.2329994,69.6929975 39.359,70.203 C39.4850006,70.7130025 39.6859986,71.171998 39.962,71.58 C40.2380014,71.988002 40.5979978,72.3149988 41.042,72.561 C41.4860022,72.8070012 42.0259968,72.93 42.662,72.93 C43.2980032,72.93 43.8379978,72.8070012 44.282,72.561 C44.7260022,72.3149988 45.0859986,71.988002 45.362,71.58 C45.6380014,71.171998 45.8389994,70.7130025 45.965,70.203 C46.0910006,69.6929975 46.154,69.1680027 46.154,68.628 C46.154,68.0639972 46.0910006,67.5180026 45.965,66.99 C45.8389994,66.4619974 45.6380014,65.9910021 45.362,65.577 C45.0859986,65.1629979 44.7260022,64.8330012 44.282,64.587 C43.8379978,64.3409988 43.2980032,64.218 42.662,64.218 C42.0259968,64.218 41.4860022,64.3409988 41.042,64.587 C40.5979978,64.8330012 40.2380014,65.1629979 39.962,65.577 C39.6859986,65.9910021 39.4850006,66.4619974 39.359,66.99 C39.2329994,67.5180026 39.17,68.0639972 39.17,68.628 Z M36.344,68.628 C36.344,67.6679952 36.4879986,66.7770041 36.776,65.955 C37.0640014,65.1329959 37.4779973,64.4160031 38.018,63.804 C38.5580027,63.1919969 39.2209961,62.7120017 40.007,62.364 C40.7930039,62.0159983 41.6779951,61.842 42.662,61.842 C43.658005,61.842 44.5459961,62.0159983 45.326,62.364 C46.1060039,62.7120017 46.7659973,63.1919969 47.306,63.804 C47.8460027,64.4160031 48.2599986,65.1329959 48.548,65.955 C48.8360014,66.7770041 48.98,67.6679952 48.98,68.628 C48.98,69.5640047 48.8360014,70.4369959 48.548,71.247 C48.2599986,72.0570041 47.8460027,72.761997 47.306,73.362 C46.7659973,73.962003 46.1060039,74.4329983 45.326,74.775 C44.5459961,75.1170017 43.658005,75.288 42.662,75.288 C41.6779951,75.288 40.7930039,75.1170017 40.007,74.775 C39.2209961,74.4329983 38.5580027,73.962003 38.018,73.362 C37.4779973,72.761997 37.0640014,72.0570041 36.776,71.247 C36.4879986,70.4369959 36.344,69.5640047 36.344,68.628 Z M52.832,70.734 L50.096,70.734 C50.0839999,71.526004 50.2279985,72.2099971 50.528,72.786 C50.8280015,73.3620029 51.2329974,73.8359981 51.743,74.208 C52.2530026,74.5800019 52.8409967,74.8529991 53.507,75.027 C54.1730033,75.2010009 54.8599965,75.288 55.568,75.288 C56.4440044,75.288 57.2149967,75.186001 57.881,74.982 C58.5470033,74.777999 59.1049978,74.4930018 59.555,74.127 C60.0050023,73.7609982 60.3439989,73.3260025 60.572,72.822 C60.8000011,72.3179975 60.914,71.7720029 60.914,71.184 C60.914,70.4639964 60.7610015,69.8730023 60.455,69.411 C60.1489985,68.9489977 59.7860021,68.5800014 59.366,68.304 C58.9459979,68.0279986 58.5230021,67.8270006 58.097,67.701 C57.6709979,67.5749994 57.3380012,67.4880002 57.098,67.44 C56.293996,67.235999 55.6430025,67.0680007 55.145,66.936 C54.6469975,66.8039993 54.2570014,66.6720007 53.975,66.54 C53.6929986,66.4079993 53.5040005,66.2640008 53.408,66.108 C53.3119995,65.9519992 53.264,65.7480013 53.264,65.496 C53.264,65.2199986 53.3239994,64.9920009 53.444,64.812 C53.5640006,64.6319991 53.7169991,64.4820006 53.903,64.362 C54.0890009,64.2419994 54.2959989,64.1580002 54.524,64.11 C54.7520011,64.0619998 54.9799989,64.038 55.208,64.038 C55.5560017,64.038 55.8769985,64.0679997 56.171,64.128 C56.4650015,64.1880003 56.7259989,64.2899993 56.954,64.434 C57.1820011,64.5780007 57.3649993,64.7759987 57.503,65.028 C57.6410007,65.2800013 57.7219999,65.5979981 57.746,65.982 L60.482,65.982 C60.482,65.2379963 60.3410014,64.6050026 60.059,64.083 C59.7769986,63.5609974 59.3960024,63.1320017 58.916,62.796 C58.4359976,62.4599983 57.8870031,62.2170007 57.269,62.067 C56.6509969,61.9169992 56.0060034,61.842 55.334,61.842 C54.7579971,61.842 54.1820029,61.9199992 53.606,62.076 C53.0299971,62.2320008 52.5140023,62.4719984 52.058,62.796 C51.6019977,63.1200016 51.2330014,63.5249976 50.951,64.011 C50.6689986,64.4970024 50.528,65.0699967 50.528,65.73 C50.528,66.3180029 50.6389989,66.8189979 50.861,67.233 C51.0830011,67.6470021 51.3739982,67.9919986 51.734,68.268 C52.0940018,68.5440014 52.5019977,68.7689991 52.958,68.943 C53.4140023,69.1170009 53.8819976,69.2639994 54.362,69.384 C54.8300023,69.5160007 55.2919977,69.6359995 55.748,69.744 C56.2040023,69.8520005 56.6119982,69.9779993 56.972,70.122 C57.3320018,70.2660007 57.6229989,70.4459989 57.845,70.662 C58.0670011,70.8780011 58.178,71.1599983 58.178,71.508 C58.178,71.8320016 58.0940008,72.0989989 57.926,72.309 C57.7579992,72.519001 57.5480013,72.6839994 57.296,72.804 C57.0439987,72.9240006 56.7740014,73.0049998 56.486,73.047 C56.1979986,73.0890002 55.9280013,73.11 55.676,73.11 C55.3039981,73.11 54.9440017,73.0650004 54.596,72.975 C54.2479983,72.8849996 53.9450013,72.7470009 53.687,72.561 C53.4289987,72.3749991 53.2220008,72.1320015 53.066,71.832 C52.9099992,71.5319985 52.832,71.1660022 52.832,70.734 Z" id="POS" fill="#F5A623"></path>
            <path d="M60.7543387,18.1311424 L57.2237052,18.1311424 L57.2237052,11.0698755 C57.2237052,10.0954283 56.4328771,9.3046002 55.4584299,9.3046002 L41.3359789,9.3046002 C40.3597939,9.3046002 39.5707035,10.0954283 39.5707035,11.0698755 L39.5707035,18.1310597 L32.5095194,18.1310597 L32.5095194,14.600509 L36.0400701,14.600509 L36.0400701,9.3046002 L25.4482525,9.3046002 L25.4482525,14.600509 L28.978886,14.600509 L28.978886,18.1311424 L21.9176191,18.1311424 C20.9414342,18.1311424 20.1523438,18.9219706 20.1523438,19.8964178 L20.1523438,42.8453282 C20.1523438,43.8197755 20.9414342,44.6106036 21.9176191,44.6106036 L23.6828944,44.6106036 L23.6828944,49.9065124 C23.6829772,50.8810423 24.4720676,51.6718705 25.4482525,51.6718705 L57.2237052,51.6718705 C58.1981524,51.6718705 58.9889806,50.8810423 58.9889806,49.9065951 L58.9889806,44.6106863 L60.7542559,44.6106863 C61.7287031,44.6106863 62.5195313,43.8198582 62.5195313,42.845411 L62.5195313,19.8964178 C62.519614,18.9219706 61.7287859,18.1311424 60.7543387,18.1311424 Z M46.6318877,23.4270512 L50.1625211,23.4270512 L50.1625211,26.9576846 L46.6318877,26.9576846 L46.6318877,23.4270512 Z M46.6318877,28.72296 L50.1625211,28.72296 L50.1625211,32.2535934 L46.6318877,32.2535934 L46.6318877,28.72296 Z M46.6318877,34.0188688 L50.1625211,34.0188688 L50.1625211,37.5495022 L46.6318877,37.5495022 L46.6318877,34.0188688 Z M41.3359789,23.4270512 L44.8666123,23.4270512 L44.8666123,26.9576846 L41.3359789,26.9576846 L41.3359789,23.4270512 Z M41.3359789,28.72296 L44.8666123,28.72296 L44.8666123,32.2535934 L41.3359789,32.2535934 L41.3359789,28.72296 Z M41.3359789,34.0188688 L44.8666123,34.0188688 L44.8666123,37.5495022 L41.3359789,37.5495022 L41.3359789,34.0188688 Z M27.2135279,25.1923265 L37.8053454,25.1923265 L37.8053454,37.5494195 L27.2135279,37.5494195 L27.2135279,25.1923265 Z M55.4584299,48.141237 L27.2135279,48.141237 L27.2135279,44.6106036 L55.4583471,44.6106036 L55.4583471,48.141237 L55.4584299,48.141237 Z M55.4584299,37.5494195 L51.9277964,37.5494195 L51.9277964,34.018786 L55.4584299,34.018786 L55.4584299,37.5494195 L55.4584299,37.5494195 Z M55.4584299,32.2535107 L51.9277964,32.2535107 L51.9277964,28.7228772 L55.4584299,28.7228772 L55.4584299,32.2535107 L55.4584299,32.2535107 Z M55.4584299,26.9576019 L51.9277964,26.9576019 L51.9277964,23.4269685 L55.4584299,23.4269685 L55.4584299,26.9576019 L55.4584299,26.9576019 Z" id="cashier" fill="#F5A623" fill-rule="nonzero"></path>
        </g>
    </g>
</svg>