<?xml version="1.0" encoding="UTF-8"?>
<svg width="85px" height="85px" viewBox="0 0 85 85" version="1.1" xmlns="http://www.w3.org/2000/svg" xmlns:xlink="http://www.w3.org/1999/xlink">
    <!-- Generator: Sketch 44.1 (41455) - http://www.bohemiancoding.com/sketch -->
    <title>sales_marketing</title>
    <desc>Created with Sketch.</desc>
    <defs></defs>
    <g id="Page-1" stroke="none" stroke-width="1" fill="none" fill-rule="evenodd">
        <g id="sales_marketing" transform="translate(0.656250, 0.800781)">
            <rect id="Rectangle-path" stroke="#F5A623" fill="#55493B" x="0" y="0" width="83" height="83" rx="11"></rect>
            <g id="Group-2" transform="translate(18.000000, 7.066406)" fill="#F5A623">
                <path d="M23.5462195,20.6127045 C25.2269023,20.6127045 26.5889896,19.0527909 26.5889896,17.1304761 C26.5889896,15.207414 25.2269023,13.6482477 23.5462195,13.6482477 C21.8639488,13.6482477 20.5018615,15.2073206 20.5018615,17.1304761 C20.5018615,19.0527909 21.8639488,20.6127045 23.5462195,20.6127045 Z" id="Shape" fill-rule="nonzero"></path>
                <path d="M35.2639246,19.0682957 C37.0380099,19.0682957 38.4786486,17.4209575 38.4786486,15.3888949 C38.4786486,13.357019 37.0380099,11.709494 35.2639246,11.709494 C33.4853561,11.709494 32.0463052,13.357019 32.0463052,15.3888949 C32.0463052,17.4209575 33.4853561,19.0682957 35.2639246,19.0682957 Z" id="Shape" fill-rule="nonzero"></path>
                <path d="M48.8887893,36.5827318 C48.6888035,36.2731989 48.3457562,36.0865188 47.9775981,36.0865188 L44.5676341,36.0865188 L44.5676341,32.7592903 C45.1708931,32.3424113 45.4630186,31.5805843 45.2011061,30.8589745 L44.5342198,29.0158832 C45.9773394,28.9737651 47.1393383,27.7935584 47.1393383,26.3401344 L47.1393383,3.51663562 C47.1393383,2.03700037 45.9360216,0.832983447 44.4566865,0.832983447 L2.68285182,0.832983447 C1.20321657,0.832983447 0,2.03700037 0,3.51663562 L0,26.3401344 C0,27.8197696 1.20321657,29.0238866 2.68285182,29.0238866 L15.4876493,29.0238866 L16.8117177,25.8266139 L3.19727268,25.8266139 L3.19727268,4.03015608 L43.9421656,4.03015608 L43.9421656,25.8266139 L43.3786237,25.8266139 L41.427586,20.4386007 C41.1590708,19.6917801 40.5033893,19.3964533 39.6495227,19.3964533 L35.8648978,19.3964533 L33.89025,19.3964533 C33.1008111,19.3964533 32.5518754,19.4908938 32.1582064,20.0688419 L28.949929,24.7663587 L26.1686349,24.4313149 C25.2413368,24.3249692 24.438192,24.969546 24.328645,25.8752348 C24.2190979,26.781724 24.8651753,27.6054776 25.7716645,27.7142243 L29.5498866,28.16992 C29.6167153,28.1779234 29.6834439,28.1818251 29.7483718,28.1818251 C30.2897042,28.1818251 30.804025,27.9152106 31.113658,27.4612157 L31.7676387,26.504705 L32.2962657,27.7841543 L32.2962657,27.8420792 L32.3009677,30.8924888 L31.4325949,28.7970892 C30.9468864,29.1573439 30.3642362,29.3732366 29.7482718,29.3732366 C29.6356234,29.3732366 29.5212743,29.3669339 29.4069252,29.3526277 L25.6286031,28.8971322 C24.0697338,28.7090514 22.9569561,27.2922432 23.1459372,25.7323735 C23.3349183,24.1726038 24.7318181,23.0495216 26.3113962,23.2488072 L28.3735816,23.4972138 L28.9133133,22.7066744 L28.5989784,21.946248 C28.3528727,21.3540937 27.7845287,21.0349567 27.1859717,21.026253 L21.1233689,21.026253 C20.5186092,21.0293543 19.9453631,21.3492917 19.6978568,21.946248 L15.6908365,31.6308058 C15.3606948,32.430149 15.7417584,33.3444415 16.5386005,33.6746833 C16.7337843,33.7564184 16.9369715,33.7938345 17.1370574,33.7938345 C17.7515212,33.7938345 18.3340713,33.4301783 18.5832783,32.8271194 L18.724639,32.4857729 L17.7784328,37.0371269 C17.7070021,37.3807744 17.7943396,37.7395285 18.016535,38.0118454 C18.2373298,38.2849626 18.5705729,38.4436308 18.9230242,38.4436308 L20.0168938,38.4436308 L20.0168938,47.7790387 C20.0168938,48.8156838 20.8584551,49.657045 21.8950001,49.657045 C22.9314451,49.657045 23.7729064,48.8155837 23.7729064,47.7790387 L23.7729064,38.4436308 L24.5253294,38.4436308 L24.5253294,47.849669 C24.5253294,48.8863141 25.3666906,49.7275753 26.4032357,49.7275753 C27.4398807,49.7275753 28.281342,48.8863141 28.281342,47.849669 L28.281342,38.4436308 L29.3766122,38.4436308 C29.7274628,38.4436308 30.060806,38.2849626 30.2830014,38.0118454 C30.5052968,37.7395285 30.5926343,37.3815748 30.5212036,37.0371269 L29.5798995,32.5038807 L29.7132567,32.8270194 C29.9623637,33.4300783 30.5451139,33.7937344 31.1594776,33.7937344 C31.3594635,33.7937344 31.5626507,33.7563184 31.7578345,33.6745833 C31.9753279,33.5842445 32.154805,33.4452848 32.3040691,33.2817146 L32.3246779,47.7431233 C32.3246779,48.839394 33.2135595,49.7274752 34.3090298,49.7274752 C35.4044001,49.7274752 36.2933818,48.839394 36.2933818,47.7431233 L36.2933818,36.5422144 L37.0855219,36.5422144 L37.0855219,47.7428232 C37.0855219,48.8390938 37.9746036,49.7271751 39.0699738,49.7271751 C40.1652441,49.7271751 41.0543258,48.8390938 41.0543258,47.7428232 L41.0543258,43.2947135 L45.7056227,43.2947135 C46.1311054,43.2947135 46.5184717,43.0447061 46.6930466,42.6556391 L48.9665227,37.6177762 C49.1172874,37.2820321 49.0888752,36.8922647 48.8887893,36.5827318 Z M42.9418361,36.0865188 L41.0544258,36.0865188 L41.0877401,29.2095663 L42.0926716,31.9844577 C42.2466377,32.4098403 42.564174,32.7162718 42.9418361,32.8972495 L42.9418361,36.0865188 L42.9418361,36.0865188 Z" id="Shape" fill-rule="nonzero"></path>
                <path d="M6.714,13.308 L8.778,13.308 C9.21000216,13.308 9.53399892,13.212001 9.75,13.02 C9.96600108,12.827999 10.074,12.5160022 10.074,12.084 C10.074,11.6679979 9.96600108,11.3660009 9.75,11.178 C9.53399892,10.9899991 9.21000216,10.896 8.778,10.896 L6.714,10.896 L6.714,13.308 Z M4.83,9.432 L9.45,9.432 C9.83400192,9.432 10.1799985,9.49399938 10.488,9.618 C10.7960015,9.74200062 11.0599989,9.91199892 11.28,10.128 C11.5000011,10.3440011 11.6679994,10.5939986 11.784,10.878 C11.9000006,11.1620014 11.958,11.4679984 11.958,11.796 C11.958,12.3000025 11.8520011,12.7359982 11.64,13.104 C11.4279989,13.4720018 11.0820024,13.751999 10.602,13.944 L10.602,13.968 C10.8340012,14.0320003 11.0259992,14.1299993 11.178,14.262 C11.3300008,14.3940007 11.4539995,14.5499991 11.55,14.73 C11.6460005,14.9100009 11.7159998,15.1079989 11.76,15.324 C11.8040002,15.5400011 11.8339999,15.7559989 11.85,15.972 C11.858,16.1080007 11.866,16.2679991 11.874,16.452 C11.882,16.6360009 11.8959999,16.823999 11.916,17.016 C11.9360001,17.208001 11.9679998,17.3899991 12.012,17.562 C12.0560002,17.7340009 12.1219996,17.8799994 12.21,18 L10.326,18 C10.2219995,17.7279986 10.1580001,17.4040019 10.134,17.028 C10.1099999,16.6519981 10.0740002,16.2920017 10.026,15.948 C9.96199968,15.4999978 9.82600104,15.172001 9.618,14.964 C9.40999896,14.755999 9.07000236,14.652 8.598,14.652 L6.714,14.652 L6.714,18 L4.83,18 L4.83,9.432 Z M16.446,16.884 C16.7260014,16.884 16.9599991,16.8280006 17.148,16.716 C17.3360009,16.6039994 17.4879994,16.4580009 17.604,16.278 C17.7200006,16.0979991 17.8019998,15.8880012 17.85,15.648 C17.8980002,15.4079988 17.922,15.1640012 17.922,14.916 C17.922,14.6679988 17.8960003,14.4240012 17.844,14.184 C17.7919997,13.9439988 17.7060006,13.7300009 17.586,13.542 C17.4659994,13.3539991 17.3120009,13.2020006 17.124,13.086 C16.9359991,12.9699994 16.7060014,12.912 16.434,12.912 C16.1539986,12.912 15.9200009,12.9699994 15.732,13.086 C15.5439991,13.2020006 15.3920006,13.3519991 15.276,13.536 C15.1599994,13.7200009 15.0780002,13.9319988 15.03,14.172 C14.9819998,14.4120012 14.958,14.6599987 14.958,14.916 C14.958,15.1640012 14.9839997,15.4079988 15.036,15.648 C15.0880003,15.8880012 15.1719994,16.0979991 15.288,16.278 C15.4040006,16.4580009 15.557999,16.6039994 15.75,16.716 C15.942001,16.8280006 16.1739986,16.884 16.446,16.884 Z M13.314,11.796 L14.934,11.796 L14.934,12.588 L14.958,12.588 C15.166001,12.2519983 15.4299984,12.0080008 15.75,11.856 C16.0700016,11.7039992 16.4219981,11.628 16.806,11.628 C17.2940024,11.628 17.7139982,11.7199991 18.066,11.904 C18.4180018,12.0880009 18.7099988,12.3319985 18.942,12.636 C19.1740012,12.9400015 19.3459994,13.293998 19.458,13.698 C19.5700006,14.102002 19.626,14.5239978 19.626,14.964 C19.626,15.3800021 19.5700006,15.7799981 19.458,16.164 C19.3459994,16.5480019 19.1760011,16.8879985 18.948,17.184 C18.7199989,17.4800015 18.4360017,17.7159991 18.096,17.892 C17.7559983,18.0680009 17.3580023,18.156 16.902,18.156 C16.5179981,18.156 16.1640016,18.0780008 15.84,17.922 C15.5159984,17.7659992 15.250001,17.5360015 15.042,17.232 L15.018,17.232 L15.018,20.172 L13.314,20.172 L13.314,11.796 Z" id="Rp"></path>
            </g>
            <path d="M31.664,70.734 L28.928,70.734 C28.9159999,71.526004 29.0599985,72.2099971 29.36,72.786 C29.6600015,73.3620029 30.0649974,73.8359981 30.575,74.208 C31.0850025,74.5800019 31.6729967,74.8529991 32.339,75.027 C33.0050033,75.2010009 33.6919965,75.288 34.4,75.288 C35.2760044,75.288 36.0469967,75.186001 36.713,74.982 C37.3790033,74.777999 37.9369978,74.4930018 38.387,74.127 C38.8370022,73.7609982 39.1759989,73.3260025 39.404,72.822 C39.6320011,72.3179975 39.746,71.7720029 39.746,71.184 C39.746,70.4639964 39.5930015,69.8730023 39.287,69.411 C38.9809985,68.9489977 38.6180021,68.5800014 38.198,68.304 C37.7779979,68.0279986 37.3550021,67.8270006 36.929,67.701 C36.5029979,67.5749994 36.1700012,67.4880002 35.93,67.44 C35.125996,67.235999 34.4750025,67.0680007 33.977,66.936 C33.4789975,66.8039993 33.0890014,66.6720007 32.807,66.54 C32.5249986,66.4079993 32.3360005,66.2640008 32.24,66.108 C32.1439995,65.9519992 32.096,65.7480013 32.096,65.496 C32.096,65.2199986 32.1559994,64.9920009 32.276,64.812 C32.3960006,64.6319991 32.5489991,64.4820006 32.735,64.362 C32.9210009,64.2419994 33.1279989,64.1580002 33.356,64.11 C33.5840011,64.0619998 33.8119989,64.038 34.04,64.038 C34.3880017,64.038 34.7089985,64.0679997 35.003,64.128 C35.2970015,64.1880003 35.5579989,64.2899993 35.786,64.434 C36.0140011,64.5780007 36.1969993,64.7759987 36.335,65.028 C36.4730007,65.2800013 36.5539999,65.5979981 36.578,65.982 L39.314,65.982 C39.314,65.2379963 39.1730014,64.6050026 38.891,64.083 C38.6089986,63.5609974 38.2280024,63.1320017 37.748,62.796 C37.2679976,62.4599983 36.7190031,62.2170007 36.101,62.067 C35.4829969,61.9169992 34.8380034,61.842 34.166,61.842 C33.5899971,61.842 33.0140029,61.9199992 32.438,62.076 C31.8619971,62.2320008 31.3460023,62.4719984 30.89,62.796 C30.4339977,63.1200016 30.0650014,63.5249976 29.783,64.011 C29.5009986,64.4970024 29.36,65.0699967 29.36,65.73 C29.36,66.3180029 29.4709989,66.8189979 29.693,67.233 C29.9150011,67.6470021 30.2059982,67.9919986 30.566,68.268 C30.9260018,68.5440014 31.3339977,68.7689991 31.79,68.943 C32.2460023,69.1170009 32.7139976,69.2639994 33.194,69.384 C33.6620023,69.5160007 34.1239977,69.6359995 34.58,69.744 C35.0360023,69.8520005 35.4439982,69.9779993 35.804,70.122 C36.1640018,70.2660007 36.4549989,70.4459989 36.677,70.662 C36.8990011,70.8780011 37.01,71.1599983 37.01,71.508 C37.01,71.8320016 36.9260008,72.0989989 36.758,72.309 C36.5899992,72.519001 36.3800013,72.6839994 36.128,72.804 C35.8759987,72.9240006 35.6060014,73.0049998 35.318,73.047 C35.0299986,73.0890002 34.7600013,73.11 34.508,73.11 C34.1359981,73.11 33.7760017,73.0650004 33.428,72.975 C33.0799983,72.8849996 32.7770013,72.7470009 32.519,72.561 C32.2609987,72.3749991 32.0540008,72.1320015 31.898,71.832 C31.7419992,71.5319985 31.664,71.1660022 31.664,70.734 Z M41.42,62.148 L41.42,75 L44.066,75 L44.066,65.982 L44.102,65.982 L47.252,75 L49.43,75 L52.58,65.892 L52.616,65.892 L52.616,75 L55.262,75 L55.262,62.148 L51.284,62.148 L48.44,70.986 L48.404,70.986 L45.398,62.148 L41.42,62.148 Z" id="SM" fill="#F5A623"></path>
        </g>
    </g>
</svg>